<mxfile host="app.diagrams.net" modified="2024-04-26T13:35:05.976Z" agent="Mozilla/5.0 (Macintosh; Intel Mac OS X 10_15_7) AppleWebKit/537.36 (KHTML, like Gecko) Chrome/124.0.0.0 Safari/537.36 Edg/124.0.0.0" version="22.1.16" etag="yGyJATfeEXm7x7_srmg4" type="github">
  <diagram name="Page-1" id="lqv_6XfsItXpiylLgZFf">
    <mxGraphModel>
      <root>
        <mxCell id="0" />
        <mxCell id="1" parent="0" />
      </root>
    </mxGraphModel>
  </diagram>
</mxfile>
